<?xml version="1.0" encoding="utf-8"?>
<!-- Generator: Adobe Illustrator 16.0.4, SVG Export Plug-In . SVG Version: 6.00 Build 0)  -->
<!DOCTYPE svg PUBLIC "-//W3C//DTD SVG 1.1//EN" "http://www.w3.org/Graphics/SVG/1.1/DTD/svg11.dtd">
<svg version="1.1" id="Layer_1" xmlns="http://www.w3.org/2000/svg" xmlns:xlink="http://www.w3.org/1999/xlink" x="0px" y="0px"
	 width="18.437px" height="26.608px" viewBox="8.115 -1.702 18.437 26.608" enable-background="new 8.115 -1.702 18.437 26.608"
	 xml:space="preserve">
<circle fill="#333333" cx="17.765" cy="0.892" r="2.088"/>
<path fill="#333333" d="M24.787,10.395c-0.581-0.102-2.903-0.504-3.033-0.547c-0.148-0.05,0,0-0.05-0.073
	c-0.049-0.074-2.075-4.351-2.273-4.572c-0.197-0.223-0.741-0.791-1.507-1.038s-1.533,0.147-1.533,0.147s-3.805,2.176-4.053,2.299
	c-0.247,0.124-0.47,0.567-0.47,0.567l-1.777,3.342c-0.146,0.184-0.233,0.414-0.233,0.667c0,0.594,0.481,1.074,1.075,1.074
	c0.508,0,0.933-0.352,1.045-0.823l1.657-3.135l1.039-0.58c-0.074,0.223-1.026,4.855-1.026,4.855l-0.964,5.487l-3.378,4.068
	c-0.242,0.228-0.395,0.548-0.395,0.906c0,0.686,0.555,1.24,1.24,1.24c0.417,0,0.785-0.208,1.01-0.523
	c0.618-0.728,3.731-4.386,4.031-4.742c0.334-0.395,0.42-0.593,0.47-0.852c0.05-0.26,0.605-3.608,0.605-3.608l3.188,3.188v5.623
	h0.006c0.064,0.629,0.596,1.12,1.242,1.12s1.178-0.491,1.242-1.12h0.007c0,0-0.001-0.04-0.001-0.109
	c0-0.006,0.001-0.013,0.001-0.019c0-0.008-0.001-0.017-0.001-0.024c-0.006-0.855-0.032-5.122,0.001-6.089
	c0.037-1.073-0.347-1.31-0.433-1.408c-0.087-0.099-3.065-3.262-3.065-3.262l0.655-3.176c0,0,0.853,1.668,0.939,1.854
	c0.087,0.187,0.359,0.521,0.643,0.581c0.285,0.062,3.832,0.778,3.832,0.778l0.001-0.007c0.052,0.007,0.105,0.016,0.159,0.016
	c0.584,0,1.058-0.475,1.058-1.06C25.741,10.894,25.322,10.447,24.787,10.395z"/>
</svg>
