<?xml version="1.0" encoding="utf-8"?>
<!-- Generator: Adobe Illustrator 16.0.4, SVG Export Plug-In . SVG Version: 6.00 Build 0)  -->
<!DOCTYPE svg PUBLIC "-//W3C//DTD SVG 1.1//EN" "http://www.w3.org/Graphics/SVG/1.1/DTD/svg11.dtd">
<svg version="1.1" id="Layer_1" xmlns="http://www.w3.org/2000/svg" xmlns:xlink="http://www.w3.org/1999/xlink" x="0px" y="0px"
	 width="18.123px" height="24.615px" viewBox="11.676 0.812 18.123 24.615" enable-background="new 11.676 0.812 18.123 24.615"
	 xml:space="preserve">
<path fill="#333333" d="M25.519,19.278c1.261-0.209,2.518-1.525,2.515-3.134V4.415c0.003-1.654-1.392-3.175-3.278-3.173h-4.039
	h-4.058c-1.897-0.002-3.292,1.519-3.289,3.173v11.729c-0.003,1.607,1.254,2.925,2.515,3.134l-3.779,5.674h2.186l2.699-3.977h3.713
	h3.712l2.711,3.977h2.173L25.519,19.278z M18.568,2.454c0-0.294,0.25-0.536,0.539-0.54h1.594h1.593
	c0.289,0.004,0.541,0.246,0.541,0.54v0.921c0,0.293-0.236,0.541-0.541,0.539h-1.593h-1.593c-0.303,0.002-0.54-0.246-0.54-0.539
	V2.454L18.568,2.454z M16.579,17.567c-0.791-0.008-1.438-0.651-1.436-1.448c-0.002-0.795,0.645-1.439,1.436-1.437
	c0.799-0.004,1.444,0.642,1.448,1.437C18.025,16.915,17.378,17.559,16.579,17.567z M16.765,9.945
	c-0.907-0.005-1.647-0.627-1.646-1.646V6.194c0.007-0.88,0.575-1.646,1.646-1.646h3.937h3.937c1.072,0.002,1.641,0.769,1.646,1.646
	v2.104c0.002,1.021-0.737,1.643-1.646,1.646h-3.937H16.765z M23.347,16.119c-0.002-0.796,0.643-1.44,1.436-1.437
	c0.799-0.005,1.443,0.641,1.447,1.437c-0.004,0.796-0.648,1.439-1.447,1.447C23.989,17.559,23.345,16.915,23.347,16.119z"/>
</svg>
