<?xml version="1.0" encoding="utf-8"?>
<!-- Generator: Adobe Illustrator 16.0.4, SVG Export Plug-In . SVG Version: 6.00 Build 0)  -->
<!DOCTYPE svg PUBLIC "-//W3C//DTD SVG 1.1//EN" "http://www.w3.org/Graphics/SVG/1.1/DTD/svg11.dtd">
<svg version="1.1" id="Layer_1" xmlns="http://www.w3.org/2000/svg" xmlns:xlink="http://www.w3.org/1999/xlink" x="0px" y="0px"
	 width="27.642px" height="22.942px" viewBox="3.505 1.545 27.642 22.942" enable-background="new 3.505 1.545 27.642 22.942"
	 xml:space="preserve">
<path fill="#333333" d="M30.708,9.552c0-0.809-0.662-1.471-1.47-1.471h-1.758l-1.274-3.313c-0.317-0.822-1.27-1.694-2.118-1.938
	c0,0-2.2-0.628-6.743-0.628c-4.544,0-6.744,0.628-6.744,0.628C9.752,3.073,8.799,3.944,8.482,4.767L7.208,8.081H5.451
	c-0.809,0-1.47,0.662-1.47,1.471c0,0.81,0.661,1.47,1.47,1.47h0.626l-0.452,1.178c-0.317,0.821-0.576,2.217-0.576,3.1v6.948
	c0,1.029,0.842,1.871,1.871,1.871s1.871-0.842,1.871-1.871v-1.069h17.105v1.069c0,1.029,0.842,1.871,1.871,1.871
	c1.029,0,1.871-0.842,1.871-1.871v-6.948c0-0.883-0.259-2.277-0.576-3.1l-0.453-1.178h0.627
	C30.045,11.021,30.708,10.361,30.708,9.552z M8.708,9.987l1.502-4.076c0.101-0.275,0.425-0.501,0.719-0.501h12.829
	c0.294,0,0.618,0.226,0.719,0.501l1.501,4.075c0.101,0.275-0.056,0.502-0.35,0.502H9.059C8.765,10.488,8.606,10.261,8.708,9.987z
	 M8.657,16.634c-0.812,0-1.47-0.659-1.47-1.47c0-0.812,0.658-1.47,1.47-1.47c0.812,0,1.47,0.657,1.47,1.47
	C10.127,15.974,9.469,16.634,8.657,16.634z M26.029,16.634c-0.812,0-1.47-0.658-1.47-1.47c0-0.812,0.658-1.47,1.47-1.47
	s1.47,0.657,1.47,1.47C27.5,15.975,26.841,16.634,26.029,16.634z"/>
</svg>
