<?xml version="1.0"?><svg width="421.617" height="569.628" xmlns="http://www.w3.org/2000/svg">
 <title>Magnifier</title>

 <metadata id="metadata7">image/svg+xmlMagnifying Glass</metadata>
 <g>
  <title>Layer 1</title>
  <g id="layer1">
   <g transform="matrix(2.72802 -1.57503 1.57503 2.72802 -4092.23 1189.35)" id="g2859">
    <path d="m1333.307861,342.366577c-29.26001,0 -53,23.743988 -53,53c0,25.980011 18.72998,47.606018 43.410034,52.125c-0.190063,4.039978 -3.910034,85.128052 -3.910034,85.250061c0,3.656982 6.040039,6.625 13.5,6.625c7.459961,0 13.5,-2.968018 13.5,-6.625l-3.910034,-85.250061c24.680054,-4.518982 43.410034,-26.144989 43.410034,-52.125c0,-29.256012 -23.73999,-53 -53,-53zm0,8c24.839966,0 45,20.160004 45,45c0,24.839996 -20.160034,45 -45,45c-24.839966,0 -45,-20.160004 -45,-45c0,-24.839996 20.160034,-45 45,-45z" fill="#000000" id="path2841"/>
   </g>
  </g>
 </g>
</svg>