<?xml version="1.0" encoding="utf-8"?>
<!-- Generator: Adobe Illustrator 16.0.4, SVG Export Plug-In . SVG Version: 6.00 Build 0)  -->
<!DOCTYPE svg PUBLIC "-//W3C//DTD SVG 1.1//EN" "http://www.w3.org/Graphics/SVG/1.1/DTD/svg11.dtd">
<svg version="1.1" id="Layer_1" xmlns="http://www.w3.org/2000/svg" xmlns:xlink="http://www.w3.org/1999/xlink" x="0px" y="0px"
	 width="144.25px" height="140px" viewBox="-52.604 -2.167 144.25 140" enable-background="new -52.604 -2.167 144.25 140"
	 xml:space="preserve">
<path fill="#373737" d="M32.912,61.816c0-9.077-7.362-16.44-16.456-16.44C7.363,45.376,0,52.739,0,61.816
	c0,2.604,0.619,5.058,1.691,7.246l-0.014,0.002L16.455,100l0.001-0.001V100l14.776-30.936l-0.012-0.002
	C32.293,66.874,32.912,64.422,32.912,61.816z M16.456,52.973c4.894,0,8.86,3.969,8.86,8.862c0,2.079-0.723,3.988-1.923,5.501
	c-1.622,2.043-4.125,3.359-6.938,3.359s-5.313-1.316-6.938-3.359c-1.201-1.513-1.924-3.422-1.924-5.501
	C7.594,56.941,11.562,52.973,16.456,52.973z"/>
<path fill="#373737" d="M33.455,45.027l5.368-5.37c-5.731-5.729-13.644-9.279-22.367-9.279v7.596
	C23.086,37.975,29.1,40.672,33.455,45.027z"/>
<path fill="#373737" d="M16.456,15.19v7.595c10.819,0,20.628,4.4,27.733,11.506l5.367-5.367
	C41.077,20.443,29.369,15.19,16.456,15.19z"/>
<path fill="#373737" d="M54.925,23.555l5.368-5.367C49.062,6.956,33.557,0,16.456,0v7.595C31.461,7.595,45.068,13.699,54.925,23.555
	z"/>
<rect x="-52.604" y="120.75" fill="none" width="157.607" height="24.417"/>
<text transform="matrix(1 0 0 1 -52.6035 135.9502)" font-family="'OpenSans-Bold'" font-size="20">ME LOCALISER</text>
</svg>
