<?xml version="1.0" encoding="utf-8"?>
<!-- Generator: Adobe Illustrator 16.0.0, SVG Export Plug-In . SVG Version: 6.00 Build 0)  -->
<!DOCTYPE svg PUBLIC "-//W3C//DTD SVG 1.1//EN" "http://www.w3.org/Graphics/SVG/1.1/DTD/svg11.dtd">
<svg version="1.1" id="Layer_1" xmlns="http://www.w3.org/2000/svg" xmlns:xlink="http://www.w3.org/1999/xlink" x="0px" y="0px"
	 width="97.493px" height="26.32px" viewBox="0 73.68 97.493 26.32" enable-background="new 0 73.68 97.493 26.32"
	 xml:space="preserve">
<circle fill="#333333" cx="35.757" cy="76.469" r="2.088"/>
<path fill="#333333" d="M42.779,85.972c-0.581-0.101-2.903-0.503-3.033-0.546c-0.148-0.05,0,0-0.05-0.074
	c-0.049-0.074-2.075-4.35-2.273-4.572c-0.197-0.223-0.741-0.791-1.507-1.038s-1.533,0.147-1.533,0.147s-3.805,2.176-4.053,2.299
	c-0.247,0.124-0.47,0.568-0.47,0.568l-1.777,3.341c-0.146,0.184-0.233,0.414-0.233,0.667c0,0.594,0.481,1.075,1.075,1.075
	c0.508,0,0.933-0.352,1.045-0.824l1.657-3.134l1.039-0.58c-0.074,0.222-1.026,4.855-1.026,4.855l-0.964,5.487l-3.378,4.069
	c-0.242,0.227-0.395,0.548-0.395,0.906c0,0.685,0.555,1.24,1.24,1.24c0.417,0,0.785-0.208,1.01-0.523
	c0.618-0.728,3.731-4.386,4.031-4.742c0.334-0.395,0.42-0.593,0.47-0.852c0.05-0.26,0.605-3.608,0.605-3.608l3.188,3.188v5.623
	h0.006c0.064,0.629,0.596,1.12,1.242,1.12c0.646,0,1.178-0.491,1.242-1.12h0.007c0,0-0.001-0.04-0.001-0.109
	c0-0.006,0.001-0.013,0.001-0.019c0-0.008-0.001-0.016-0.001-0.024c-0.006-0.856-0.032-5.122,0.001-6.089
	c0.037-1.073-0.347-1.31-0.433-1.408c-0.087-0.099-3.065-3.262-3.065-3.262l0.655-3.176c0,0,0.853,1.668,0.939,1.854
	c0.087,0.186,0.359,0.52,0.643,0.581c0.285,0.062,3.832,0.778,3.832,0.778l0.001-0.007c0.052,0.007,0.105,0.016,0.159,0.016
	c0.584,0,1.058-0.475,1.058-1.06C43.733,86.471,43.314,86.024,42.779,85.972z"/>
<path fill="#333333" d="M26.727,85.499c0-0.809-0.662-1.471-1.47-1.471h-1.758l-1.274-3.313c-0.317-0.823-1.27-1.695-2.118-1.938
	c0,0-2.2-0.628-6.743-0.628c-4.544,0-6.744,0.628-6.744,0.628c-0.848,0.243-1.801,1.114-2.118,1.938l-1.274,3.313H1.47
	C0.661,84.028,0,84.69,0,85.499s0.661,1.47,1.47,1.47h0.626l-0.452,1.177c-0.317,0.822-0.576,2.217-0.576,3.1v6.948
	c0,1.029,0.842,1.871,1.871,1.871s1.871-0.842,1.871-1.871v-1.069h17.105v1.069c0,1.029,0.842,1.871,1.871,1.871
	c1.029,0,1.871-0.842,1.871-1.871v-6.948c0-0.883-0.259-2.277-0.576-3.1l-0.453-1.177h0.627
	C26.065,86.969,26.727,86.308,26.727,85.499z M4.728,85.934l1.502-4.076c0.101-0.275,0.425-0.501,0.719-0.501h12.829
	c0.294,0,0.618,0.226,0.719,0.501l1.501,4.075c0.101,0.276-0.056,0.502-0.35,0.502H5.078C4.784,86.435,4.626,86.209,4.728,85.934z
	 M4.677,92.581c-0.812,0-1.47-0.659-1.47-1.47c0-0.812,0.658-1.47,1.47-1.47c0.812,0,1.47,0.658,1.47,1.47
	C6.147,91.922,5.489,92.581,4.677,92.581z M22.049,92.581c-0.812,0-1.47-0.658-1.47-1.47s0.658-1.47,1.47-1.47
	c0.812,0,1.47,0.658,1.47,1.47S22.861,92.581,22.049,92.581z"/>
<path fill="#333333" d="M44.992,93.896c0,3.379,2.756,6.135,6.134,6.135c3.16,0,5.797-2.38,6.109-5.525c0.234,0,0.468,0,0.713,0
	c0,0,0,0,0.014,0c0.157,0.598,0.494,1.08,1.003,1.417c-0.196,0.416-0.403,0.832-0.612,1.247c-0.325,0-0.648,0-0.989,0
	c0,0.259,0,0.533,0,0.808c0.222,0,0.443,0,0.678,0c0.118,0.129,0.286,0.207,0.455,0.207c0.182,0,0.339-0.064,0.469-0.195
	c0.286,0,0.57,0,0.855,0c0-0.272,0-0.546,0-0.819c-0.257,0-0.521,0-0.793,0c0.172-0.311,0.339-0.637,0.508-0.961
	c0.352,0.117,0.43,0.144,0.806,0.144c1.353,0,2.456-1.105,2.456-2.456c0-0.249-0.037-0.483-0.103-0.729c0,0,0-0.014,0-0.025
	c2.326-1.599,4.665-3.199,7.004-4.811c0.065,0.208,0.132,0.431,0.209,0.65c0,0.013-0.013,0.025-0.026,0.052
	c-1.521,1.183-2.379,2.925-2.379,4.862c0,3.379,2.756,6.135,6.136,6.135c3.393,0,6.147-2.756,6.147-6.135
	c0-3.394-2.755-6.148-6.148-6.148c-0.963,0-1.326,0.063-2.222,0.415c-0.014,0-0.027,0.013-0.039,0.026
	c-0.521-1.729-1.041-3.471-1.56-5.212c0,0,0,0,0-0.013c0-0.014,0-0.027,0-0.039c0-0.092,0.038-0.156,0.117-0.195
	c0,0,0.012,0,0.023,0c0.612-0.26,1.016-0.857,1.016-1.521c0-0.896-0.729-1.637-1.625-1.651c-0.206,0-0.415,0-0.624,0
	c-0.74,0-1.493,0-2.248,0c0,0.547,0,1.094,0,1.638c0.677,0,1.363,0,2.055,0c0.128,0,0.259,0,0.402,0
	c0.103,0,0.209,0.104,0.209,0.209c0,0.063-0.039,0.131-0.093,0.169c0,0-0.014,0.014-0.026,0.025c-0.506,0.286-0.87,0.65-0.87,1.234
	c0,0.261,0.039,0.351,0.104,0.598c0.038,0.145,0.247,0.833,0.247,0.833c-3.718,0-7.449,0-11.18,0
	c-0.219-0.533-0.44-1.067-0.675-1.612c0.843-0.206,1.689-0.429,2.535-0.648c0.182-0.053,0.297-0.209,0.297-0.39
	c0-0.222-0.192-0.417-0.401-0.417c-1.911,0-3.822,0-5.733,0c0,0,0,0,0,0.013c0,0.897,0.729,1.638,1.626,1.638
	c0.182,0.468,0.377,0.937,0.571,1.417c-0.702,1.312-1.402,2.626-2.105,3.938c0,0,0,0-0.011-0.013
	c-0.729-0.287-1.522-0.442-2.302-0.442C47.747,87.748,44.991,90.503,44.992,93.896z M70.472,90.997c0,0,0,0,0.013-0.013
	c0.104,0.353,0.208,0.716,0.326,1.078c0.363,1.144,1.545,2.106,2.716,2.433c0.027,0.012,0.09,0.012,0.118,0.012
	c0.336,0,0.622-0.286,0.622-0.61c0-0.209-0.104-0.391-0.261-0.508c-0.025-0.013-0.051-0.038-0.091-0.064
	c-0.701-0.48-1.286-1.015-1.52-1.716c-0.17-0.545-0.338-1.093-0.508-1.638c0,0,0.015,0,0.025-0.014
	c0.534-0.233,1.12-0.364,1.731-0.364c2.376,0,4.301,1.924,4.301,4.304c0,2.364-1.925,4.288-4.301,4.288
	c-2.367,0-4.29-1.924-4.29-4.288C69.354,92.778,69.77,91.764,70.472,90.997z M55.382,93.259c0,0,0,0.014,0,0.024
	c-0.989,0-1.988,0-2.989,0c0.481-0.909,0.961-1.817,1.455-2.74c0,0,0,0.014,0.014,0.027C54.718,91.271,55.227,92.167,55.382,93.259z
	 M61.881,91.97c-0.055-0.038-0.105-0.076-0.171-0.115c0.196-0.402,0.404-0.817,0.611-1.234c0.325,0,0.664,0,1.001,0
	c0-0.272,0-0.546,0-0.819c-0.219,0-0.441,0-0.676,0c0,0,0,0-0.013-0.013c-0.117-0.13-0.271-0.195-0.442-0.195
	c-0.168,0-0.337,0.067-0.455,0.195c0,0,0,0-0.011,0.013c-0.288,0-0.571,0-0.858,0c0,0.273,0,0.547,0,0.819c0.246,0,0.507,0,0.767,0
	c-0.157,0.312-0.313,0.624-0.479,0.949c-0.015,0-0.027,0-0.053-0.012c-0.234-0.079-0.507-0.119-0.756-0.119
	c-0.024,0-0.063,0-0.103,0c0,0-0.013,0-0.027,0c-0.767-1.91-1.548-3.82-2.325-5.731c3.677,0,7.357,0,11.048,0
	c0.104,0.39,0.22,0.78,0.337,1.171C66.819,88.566,64.349,90.269,61.881,91.97z M58.71,93.896c0-0.911,0.739-1.639,1.636-1.639
	c0.898,0,1.639,0.728,1.639,1.639c0,0.895-0.74,1.638-1.639,1.638C59.449,95.534,58.71,94.791,58.71,93.896z M54.746,88.918
	c-0.014-0.013-0.028-0.013-0.028-0.013c0.521-0.976,1.042-1.951,1.548-2.924c0.82,2.027,1.638,4.055,2.444,6.07
	c-0.014,0.011-0.027,0.023-0.027,0.023c-0.364,0.351-0.586,0.714-0.716,1.197c-0.245,0-0.492,0-0.726,0c0-0.014,0-0.014,0-0.014
	C57.058,91.491,56.187,89.971,54.746,88.918z M46.83,93.896c0-2.38,1.936-4.304,4.302-4.304c0.481,0,1,0.092,1.443,0.247
	c-0.663,1.262-1.339,2.522-2.017,3.797c-0.023,0.078-0.037,0.168-0.037,0.26c0,0.324,0.284,0.609,0.61,0.609c1.415,0,2.834,0,4.25,0
	c0,0,0,0.013,0,0.026c-0.312,2.106-2.12,3.652-4.25,3.652C48.766,98.185,46.83,96.261,46.83,93.896z"/>
<path fill="#333333" d="M87.687,75.496c-0.5-0.001-0.908-0.409-0.908-0.908c0-0.506,0.408-0.913,0.908-0.908
	c0.505-0.005,0.912,0.402,0.908,0.908C88.599,75.087,88.191,75.495,87.687,75.496L87.687,75.496z"/>
<path fill="#333333" d="M90.108,75.496c0.501-0.001,0.908-0.409,0.908-0.908c0-0.506-0.407-0.913-0.908-0.908
	c-0.505-0.005-0.912,0.402-0.909,0.908C89.196,75.087,89.604,75.495,90.108,75.496L90.108,75.496z"/>
<path fill="#333333" d="M93.716,94.391c1.26-0.209,2.517-1.525,2.514-3.133V79.528c0.003-1.654-1.391-3.175-3.278-3.173h-4.04
	h-4.057c-1.898-0.002-3.292,1.519-3.289,3.173v11.729c-0.003,1.607,1.254,2.924,2.514,3.133l-3.778,5.674h2.185l2.699-3.976h3.713
	h3.712l2.711,3.976h2.173L93.716,94.391z M86.765,77.567c0-0.294,0.25-0.536,0.539-0.54h1.594h1.593
	c0.289,0.004,0.54,0.246,0.54,0.54v0.921c0,0.293-0.236,0.541-0.54,0.539h-1.593h-1.593c-0.303,0.002-0.54-0.246-0.54-0.539V77.567
	L86.765,77.567z M84.776,92.68c-0.791-0.007-1.437-0.651-1.435-1.448c-0.002-0.795,0.644-1.439,1.435-1.436
	c0.799-0.004,1.444,0.641,1.448,1.436C86.222,92.028,85.575,92.673,84.776,92.68z M84.961,85.058
	c-0.907-0.005-1.647-0.627-1.646-1.646v-2.105c0.007-0.879,0.575-1.645,1.646-1.646h3.937h3.936
	c1.073,0.002,1.641,0.768,1.646,1.646v2.105c0.002,1.02-0.737,1.642-1.646,1.646h-3.936H84.961z M91.544,91.232
	c-0.003-0.796,0.642-1.44,1.435-1.436c0.799-0.005,1.443,0.64,1.448,1.436c-0.005,0.796-0.649,1.44-1.448,1.447
	C92.186,92.673,91.541,92.028,91.544,91.232z"/>
</svg>
