<?xml version="1.0" encoding="utf-8"?>
<!-- Generator: Adobe Illustrator 16.0.0, SVG Export Plug-In . SVG Version: 6.00 Build 0)  -->
<!DOCTYPE svg PUBLIC "-//W3C//DTD SVG 1.1//EN" "http://www.w3.org/Graphics/SVG/1.1/DTD/svg11.dtd">
<svg version="1.1" id="Calque_1" xmlns="http://www.w3.org/2000/svg" xmlns:xlink="http://www.w3.org/1999/xlink" x="0px" y="0px"
	 width="186.902px" height="74px" viewBox="0 0 186.902 74" enable-background="new 0 0 186.902 74" xml:space="preserve">
<g>
	<rect x="-4" y="12.5" fill="none" width="283" height="146.5"/>
	<path fill="#373737" d="M36.254,15.268v27.715c0,3.164-0.708,5.938-2.124,8.32c-1.417,2.383-3.462,4.209-6.138,5.479
		c-2.676,1.27-5.84,1.903-9.492,1.903c-5.508,0-9.785-1.41-12.832-4.232S1.098,47.77,1.098,42.866V15.268h9.053v26.222
		c0,3.301,0.664,5.723,1.992,7.266s3.524,2.313,6.592,2.313c2.969,0,5.122-0.775,6.46-2.328c1.337-1.553,2.007-3.989,2.007-7.311
		V15.268H36.254z"/>
	<path fill="#373737" d="M76.273,58.1h-8.937V38.969c0-2.363-0.42-4.135-1.26-5.316c-0.84-1.183-2.178-1.772-4.014-1.772
		c-2.5,0-4.308,0.835-5.42,2.505c-1.113,1.67-1.67,4.438-1.67,8.307v15.41h-8.937V25.348h6.826l1.201,4.188h0.498
		c0.996-1.582,2.368-2.778,4.116-3.589c1.747-0.811,3.734-1.217,5.962-1.217c3.809,0,6.698,1.03,8.672,3.092
		c1.973,2.061,2.959,5.035,2.959,8.921V58.1H76.273z"/>
	<path fill="#373737" d="M85.092,16.879c0-2.91,1.621-4.365,4.863-4.365s4.863,1.455,4.863,4.365c0,1.387-0.406,2.466-1.216,3.237
		c-0.812,0.772-2.026,1.157-3.647,1.157C86.713,21.273,85.092,19.809,85.092,16.879z M94.408,58.1h-8.936V25.346h8.936V58.1z"/>
	<path fill="#CE1616" d="M121.01,58.1h-9.081V22.827h-11.632v-7.56h32.345v7.56H121.01V58.1z"/>
	<path fill="#CE1616" d="M163.666,15.268h9.17L158.275,58.1h-9.902l-14.531-42.832h9.171l8.058,25.488
		c0.447,1.504,0.913,3.258,1.392,5.26c0.479,2.002,0.776,3.394,0.896,4.174c0.215-1.797,0.945-4.94,2.195-9.434L163.666,15.268z"/>
</g>
<path fill="none" stroke="#373737" stroke-width="9" stroke-miterlimit="10" d="M88,15"/>
<path fill="none" stroke="#373737" stroke-width="9" stroke-miterlimit="10" d="M90,57.877"/>
<path fill="none" stroke="#373737" stroke-width="9" stroke-miterlimit="10" d="M91.882,9.212c1.978-2.839,5.32-4.712,9.087-4.712
	h70.938c6.025,0,11.095,4.965,11.095,10.839v42.538c0,5.873-5.067,10.623-11.095,10.623h-70.938c-3.685,0-6.963-1.775-8.954-4.497"
	/>
</svg>
