<?xml version="1.0" encoding="utf-8"?>
<!-- Generator: Adobe Illustrator 16.0.4, SVG Export Plug-In . SVG Version: 6.00 Build 0)  -->
<!DOCTYPE svg PUBLIC "-//W3C//DTD SVG 1.1//EN" "http://www.w3.org/Graphics/SVG/1.1/DTD/svg11.dtd">
<svg version="1.1" id="Calque_1" xmlns="http://www.w3.org/2000/svg" xmlns:xlink="http://www.w3.org/1999/xlink" x="0px" y="0px"
	 width="13.33px" height="13.333px" viewBox="7.603 6.706 13.33 13.333" enable-background="new 7.603 6.706 13.33 13.333"
	 xml:space="preserve">
<g id="Your_Icon">
	<g>
		<path fill="#EEEEEE" d="M8.995,8.099c-0.897,0.898-1.392,2.092-1.392,3.361c0,1.27,0.494,2.463,1.392,3.361
			c0.897,0.896,2.091,1.392,3.361,1.392c0.751,0,1.474-0.177,2.125-0.504l3.891,3.891c0.587,0.586,1.536,0.586,2.122,0
			c0.294-0.293,0.439-0.678,0.439-1.062c0-0.384-0.146-0.769-0.439-1.062l-3.89-3.89c0.328-0.653,0.505-1.375,0.505-2.126
			c0-1.27-0.495-2.463-1.393-3.361s-2.091-1.393-3.361-1.393C11.086,6.707,9.892,7.202,8.995,8.099z M15.108,11.46
			c0,0.734-0.287,1.425-0.808,1.946c-0.52,0.519-1.21,0.806-1.945,0.806c-0.734,0-1.426-0.286-1.945-0.806
			c-0.52-0.521-0.806-1.212-0.806-1.946c0-0.735,0.286-1.426,0.806-1.945c0.52-0.52,1.211-0.807,1.946-0.807
			s1.426,0.286,1.944,0.806C14.821,10.034,15.108,10.725,15.108,11.46z"/>
	</g>
</g>
</svg>
