<?xml version="1.0" encoding="utf-8"?>
<!-- Generator: Adobe Illustrator 16.0.4, SVG Export Plug-In . SVG Version: 6.00 Build 0)  -->
<!DOCTYPE svg PUBLIC "-//W3C//DTD SVG 1.1//EN" "http://www.w3.org/Graphics/SVG/1.1/DTD/svg11.dtd">
<svg version="1.1" xmlns="http://www.w3.org/2000/svg" xmlns:xlink="http://www.w3.org/1999/xlink" x="0px" y="0px"
	 width="68.375px" height="30.25px" viewBox="0 0 68.375 30.25" enable-background="new 0 0 68.375 30.25" xml:space="preserve">
<g id="Calque_1" display="none">
	
		<image display="inline" overflow="visible" width="1956" height="934" xlink:href="../Capture d’écran 2013-11-19 à 15.36.16.png"  transform="matrix(0.5 0 0 0.5 -510.042 -276.4014)">
	</image>
</g>
<g id="Calque_2">
	<path fill="#373737" d="M67.625,11.423c0,4.162-3.833,7.535-8.562,7.535H9.354c-4.729,0-8.562-3.373-8.562-7.535v-2.93
		c0-4.162,3.833-7.535,8.562-7.535h49.709c4.729,0,8.562,3.373,8.562,7.535V11.423z"/>
	<g>
		<rect x="0.707" y="6.917" fill="none" width="67.168" height="19.667"/>
		<path fill="#F1F2F2" d="M10.982,7.286h1.223l-1.941,5.711h-1.32L7.006,7.286h1.223l1.074,3.398
			c0.06,0.201,0.122,0.434,0.186,0.701s0.104,0.453,0.119,0.557c0.029-0.24,0.126-0.659,0.293-1.258L10.982,7.286z"/>
		<path fill="#F1F2F2" d="M18.107,10.133c0,0.945-0.234,1.672-0.703,2.18s-1.141,0.762-2.016,0.762s-1.547-0.254-2.016-0.762
			s-0.703-1.237-0.703-2.188s0.235-1.676,0.705-2.178s1.144-0.752,2.021-0.752s1.549,0.252,2.014,0.758S18.107,9.186,18.107,10.133z
			 M13.939,10.133c0,0.638,0.121,1.119,0.363,1.441s0.604,0.484,1.086,0.484c0.966,0,1.449-0.642,1.449-1.926
			c0-1.287-0.48-1.93-1.441-1.93c-0.482,0-0.845,0.162-1.09,0.486S13.939,9.495,13.939,10.133z"/>
		<path fill="#F1F2F2" d="M23.939,7.286v3.695c0,0.422-0.094,0.792-0.283,1.109s-0.461,0.561-0.818,0.73s-0.779,0.254-1.266,0.254
			c-0.734,0-1.305-0.188-1.711-0.564s-0.609-0.891-0.609-1.545v-3.68h1.207v3.496c0,0.44,0.088,0.763,0.266,0.969
			s0.47,0.309,0.879,0.309c0.396,0,0.683-0.104,0.861-0.311s0.268-0.532,0.268-0.975V7.286H23.939z"/>
		<path fill="#F1F2F2" d="M28.709,11.411c0,0.516-0.186,0.922-0.557,1.219s-0.887,0.445-1.549,0.445
			c-0.609,0-1.148-0.115-1.617-0.344v-1.125c0.385,0.172,0.711,0.293,0.979,0.363s0.511,0.105,0.732,0.105
			c0.266,0,0.469-0.051,0.611-0.152s0.213-0.252,0.213-0.453c0-0.112-0.031-0.211-0.094-0.299s-0.154-0.171-0.275-0.252
			s-0.368-0.209-0.74-0.387c-0.349-0.164-0.611-0.322-0.785-0.473s-0.314-0.327-0.418-0.527s-0.156-0.435-0.156-0.703
			c0-0.505,0.171-0.902,0.514-1.191s0.816-0.434,1.42-0.434c0.297,0,0.58,0.035,0.85,0.105s0.551,0.169,0.846,0.297l-0.391,0.941
			c-0.305-0.125-0.557-0.212-0.756-0.262s-0.395-0.074-0.588-0.074c-0.229,0-0.405,0.053-0.527,0.16s-0.184,0.246-0.184,0.418
			c0,0.107,0.025,0.2,0.074,0.279s0.128,0.156,0.236,0.23s0.364,0.208,0.768,0.4c0.534,0.255,0.9,0.511,1.098,0.768
			S28.709,11.038,28.709,11.411z"/>
		<path fill="#F1F2F2" d="M34.389,6.829c-0.409-0.242-0.713-0.471-0.914-0.688c-0.203,0.211-0.501,0.44-0.895,0.688h-0.793V6.723
			c0.492-0.492,0.826-0.884,1-1.176h1.395c0.081,0.135,0.221,0.32,0.42,0.553s0.393,0.441,0.58,0.623v0.105H34.389z M35.111,12.997
			h-3.289V7.286h3.289v0.992h-2.078v1.254h1.934v0.992h-1.934v1.473h2.078V12.997z"/>
		<path fill="#F1F2F2" d="M38.506,12.997h-1.211V8.293h-1.551V7.286h4.312v1.008h-1.551V12.997z"/>
		<path fill="#F1F2F2" d="M44.225,12.997h-3.289V7.286h3.289v0.992h-2.078v1.254h1.934v0.992h-1.934v1.473h2.078V12.997z"/>
		<path fill="#F1F2F2" d="M48.787,11.411c0,0.516-0.186,0.922-0.557,1.219s-0.887,0.445-1.549,0.445
			c-0.609,0-1.148-0.115-1.617-0.344v-1.125c0.385,0.172,0.711,0.293,0.979,0.363s0.511,0.105,0.732,0.105
			c0.266,0,0.469-0.051,0.611-0.152S47.6,11.67,47.6,11.469c0-0.112-0.031-0.211-0.094-0.299s-0.154-0.171-0.275-0.252
			s-0.368-0.209-0.74-0.387c-0.349-0.164-0.611-0.322-0.785-0.473s-0.314-0.327-0.418-0.527s-0.156-0.435-0.156-0.703
			c0-0.505,0.171-0.902,0.514-1.191s0.816-0.434,1.42-0.434c0.297,0,0.58,0.035,0.85,0.105s0.551,0.169,0.846,0.297l-0.391,0.941
			c-0.305-0.125-0.557-0.212-0.756-0.262s-0.395-0.074-0.588-0.074c-0.229,0-0.405,0.053-0.527,0.16s-0.184,0.246-0.184,0.418
			c0,0.107,0.025,0.2,0.074,0.279s0.128,0.156,0.236,0.23s0.364,0.208,0.768,0.4c0.534,0.255,0.9,0.511,1.098,0.768
			S48.787,11.038,48.787,11.411z"/>
		<path fill="#F1F2F2" d="M51.9,12.997V7.286h1.211v5.711H51.9z"/>
		<path fill="#F1F2F2" d="M56.975,8.211c-0.456,0-0.809,0.171-1.059,0.514s-0.375,0.82-0.375,1.432c0,1.273,0.478,1.91,1.434,1.91
			c0.401,0,0.887-0.1,1.457-0.301v1.016c-0.469,0.195-0.992,0.293-1.57,0.293c-0.831,0-1.466-0.252-1.906-0.756
			s-0.66-1.227-0.66-2.17c0-0.594,0.108-1.114,0.324-1.561s0.527-0.789,0.932-1.027s0.879-0.357,1.424-0.357
			c0.555,0,1.112,0.134,1.672,0.402L58.256,8.59c-0.213-0.102-0.428-0.19-0.645-0.266S57.183,8.211,56.975,8.211z"/>
		<path fill="#F1F2F2" d="M59.646,12.997V7.286h1.211v5.711H59.646z"/>
	</g>
	<circle fill="#CD232D" stroke="#FFFFFF" stroke-miterlimit="10" cx="34.188" cy="25.604" r="3.479"/>
</g>
</svg>
