<?xml version="1.0" encoding="utf-8"?>
<!-- Generator: Adobe Illustrator 16.0.0, SVG Export Plug-In . SVG Version: 6.00 Build 0)  -->
<!DOCTYPE svg PUBLIC "-//W3C//DTD SVG 1.1//EN" "http://www.w3.org/Graphics/SVG/1.1/DTD/svg11.dtd">
<svg version="1.1" id="Layer_1" xmlns="http://www.w3.org/2000/svg" xmlns:xlink="http://www.w3.org/1999/xlink" x="0px" y="0px"
	 width="18.918px" height="31.453px" viewBox="0 0 18.918 31.453" enable-background="new 0 0 18.918 31.453" xml:space="preserve">
<g id="Your_Icon">
	<path fill="#007EFC" d="M9.483,20.261c0.559,0,1.1-0.06,1.633-0.151v9.104l-1.609,2.24l-1.702-2.24v-9.111
		C8.788,20.275,9.116,20.261,9.483,20.261z M1.165,14.111C0.432,12.754,0,11.208,0,9.555C0,4.277,4.234,0,9.459,0
		s9.459,4.277,9.459,9.555c0,1.697-0.444,3.287-1.217,4.668c-0.055,0.092-0.104,0.09-0.166,0.18
		c-0.018,0.031-0.045,0.156-0.062,0.188c-1.75,2.575-4.683,4.264-8.009,4.264C5.942,18.854,2.864,16.951,1.165,14.111z M6.903,3.341
		c-1.451,0-2.629,1.189-2.629,2.655c0,1.467,1.178,2.656,2.629,2.656c1.452,0,2.631-1.19,2.631-2.656
		C9.532,4.53,8.355,3.341,6.903,3.341z"/>
</g>
</svg>
