<?xml version="1.0" encoding="utf-8"?>
<!-- Generator: Adobe Illustrator 16.0.0, SVG Export Plug-In . SVG Version: 6.00 Build 0)  -->
<!DOCTYPE svg PUBLIC "-//W3C//DTD SVG 1.1//EN" "http://www.w3.org/Graphics/SVG/1.1/DTD/svg11.dtd">
<svg version="1.1" id="Layer_1" xmlns="http://www.w3.org/2000/svg" xmlns:xlink="http://www.w3.org/1999/xlink" x="0px" y="0px"
	 width="18.918px" height="31.453px" viewBox="0 0 18.918 31.453" enable-background="new 0 0 18.918 31.453" xml:space="preserve">
<g id="Your_Icon">
	<path fill="#CE1616" d="M9.482,20.261c0.559,0,1.1-0.06,1.633-0.151v9.104l-1.61,2.24l-1.702-2.24v-9.111
		C8.787,20.275,9.115,20.261,9.482,20.261z M1.164,14.111C0.432,12.754,0,11.208,0,9.555C0,4.277,4.233,0,9.459,0
		c5.225,0,9.459,4.277,9.459,9.555c0,1.697-0.445,3.287-1.217,4.668c-0.055,0.092-0.105,0.09-0.166,0.18
		c-0.018,0.031-0.045,0.156-0.062,0.188c-1.75,2.575-4.682,4.264-8.008,4.264C5.941,18.854,2.863,16.951,1.164,14.111z M6.902,3.341
		c-1.451,0-2.629,1.189-2.629,2.655c0,1.467,1.178,2.656,2.629,2.656c1.452,0,2.631-1.19,2.631-2.656
		C9.531,4.53,8.354,3.341,6.902,3.341z"/>
</g>
</svg>
